<?xml version="1.0" encoding="UTF-8"?>
<!DOCTYPE svg PUBLIC "-//W3C//DTD SVG 1.1//EN" "http://www.w3.org/Graphics/SVG/1.1/DTD/svg11.dtd">
<svg xmlns="http://www.w3.org/2000/svg" version="1.1" width="500px" height="500px" style="shape-rendering:geometricPrecision; text-rendering:geometricPrecision; image-rendering:optimizeQuality; fill-rule:evenodd; clip-rule:evenodd" xmlns:xlink="http://www.w3.org/1999/xlink">
<g><path style="opacity:1" fill="#3b5783" d="M 241.5,217.5 C 235.885,216.427 230.218,216.26 224.5,217C 224.652,218.924 224.652,220.758 224.5,222.5C 224.167,222.5 223.833,222.5 223.5,222.5C 221.44,221.189 219.274,221.189 217,222.5C 215.667,219.833 214.333,219.833 213,222.5C 212.5,233.161 212.333,243.828 212.5,254.5C 212.167,254.5 211.833,254.5 211.5,254.5C 211.289,241.478 211.622,228.478 212.5,215.5C 221.839,215.334 231.173,215.5 240.5,216C 241.056,216.383 241.389,216.883 241.5,217.5 Z"/></g>
<g><path style="opacity:1" fill="#395787" d="M 117.5,230.5 C 114.5,230.167 113.167,231.5 113.5,234.5C 112.761,234.631 112.094,234.464 111.5,234C 110.385,231.869 109.052,230.035 107.5,228.5C 107.5,226.833 107.5,225.167 107.5,223.5C 106.5,223.5 105.5,223.5 104.5,223.5C 104.664,226.187 104.497,228.854 104,231.5C 102.667,232.167 101.667,233.167 101,234.5C 100.517,233.552 100.351,232.552 100.5,231.5C 99.5,231.5 98.5,231.5 97.5,231.5C 97.6641,234.187 97.4974,236.854 97,239.5C 95.9537,238.228 95.4537,236.728 95.5,235C 97.0637,230.688 98.0637,226.188 98.5,221.5C 98.5,221.167 98.5,220.833 98.5,220.5C 99.1499,220.804 99.8165,221.137 100.5,221.5C 101.141,219.704 102.141,218.204 103.5,217C 106.768,215.787 110.101,215.454 113.5,216C 114.095,219.425 114.262,222.925 114,226.5C 114.605,228.481 115.605,228.815 117,227.5C 117.483,228.448 117.649,229.448 117.5,230.5 Z"/></g>
<g><path style="opacity:1" fill="#47608b" d="M 160.5,215.5 C 160.511,217.017 161.177,218.184 162.5,219C 161.263,219.232 160.263,219.732 159.5,220.5C 155.822,219.414 152.155,219.414 148.5,220.5C 151.086,221.48 153.753,221.813 156.5,221.5C 156.5,222.833 156.5,224.167 156.5,225.5C 154.202,223 151.535,222.334 148.5,223.5C 147.5,223.5 146.5,223.5 145.5,223.5C 145.5,225.167 145.5,226.833 145.5,228.5C 144.518,231.962 144.185,235.629 144.5,239.5C 143.412,233.159 142.079,226.826 140.5,220.5C 138.328,221.206 136.328,222.206 134.5,223.5C 136.825,218.353 140.825,215.187 146.5,214C 150.167,213.333 153.833,213.333 157.5,214C 158.737,214.232 159.737,214.732 160.5,215.5 Z"/></g>
<g><path style="opacity:1" fill="#5e7292" d="M 160.5,215.5 C 166.198,217.876 169.198,222.21 169.5,228.5C 168.167,228.5 166.833,228.5 165.5,228.5C 168.801,222.429 166.801,219.763 159.5,220.5C 160.263,219.732 161.263,219.232 162.5,219C 161.177,218.184 160.511,217.017 160.5,215.5 Z"/></g>
<g><path style="opacity:1" fill="#395886" d="M 63.5,223.5 C 62.7327,227.091 62.3994,230.757 62.5,234.5C 64.188,235.521 65.5213,236.855 66.5,238.5C 65.5084,238.328 64.8417,238.662 64.5,239.5C 63.5318,241.607 63.1984,243.941 63.5,246.5C 61.0598,239.537 59.8931,232.203 60,224.5C 59.5002,234.494 59.3335,244.494 59.5,254.5C 58.8333,254.5 58.1667,254.5 57.5,254.5C 57.0135,242.714 57.6801,231.047 59.5,219.5C 62.861,221.484 64.5277,220.484 64.5,216.5C 61.8127,216.336 59.146,216.503 56.5,217C 57.5762,218.726 57.7429,220.559 57,222.5C 55.6439,221.62 54.1439,221.286 52.5,221.5C 52.5,219.5 52.5,217.5 52.5,215.5C 61.8393,215.334 71.1726,215.5 80.5,216C 82.25,217.754 82.9167,219.921 82.5,222.5C 75.9779,222.177 69.6446,222.51 63.5,223.5 Z"/></g>
<g><path style="opacity:1" fill="#3a5786" d="M 159.5,220.5 C 166.801,219.763 168.801,222.429 165.5,228.5C 165.167,228.5 164.833,228.5 164.5,228.5C 162.5,228.5 160.5,228.5 158.5,228.5C 158.715,226.821 158.048,225.821 156.5,225.5C 156.5,224.167 156.5,222.833 156.5,221.5C 153.753,221.813 151.086,221.48 148.5,220.5C 152.155,219.414 155.822,219.414 159.5,220.5 Z"/></g>
<g><path style="opacity:1" fill="#3a5787" d="M 223.5,222.5 C 223.167,223.167 222.833,223.833 222.5,224.5C 221.833,225.833 221.167,227.167 220.5,228.5C 219.5,228.5 218.5,228.5 217.5,228.5C 218.96,226.576 218.626,224.909 216.5,223.5C 215.914,223.709 215.414,224.043 215,224.5C 214.161,234.478 213.661,244.478 213.5,254.5C 213.167,254.5 212.833,254.5 212.5,254.5C 212.333,243.828 212.5,233.161 213,222.5C 214.333,219.833 215.667,219.833 217,222.5C 219.274,221.189 221.44,221.189 223.5,222.5 Z"/></g>
<g><path style="opacity:1" fill="#375887" d="M 55.5,254.5 C 54.5,254.5 53.5,254.5 52.5,254.5C 52.5,244.5 52.5,234.5 52.5,224.5C 53.1499,224.196 53.8165,223.863 54.5,223.5C 55.4986,233.812 55.8319,244.145 55.5,254.5 Z"/></g>
<g><path style="opacity:1" fill="#3b5687" d="M 57.5,254.5 C 56.8333,254.5 56.1667,254.5 55.5,254.5C 55.8319,244.145 55.4986,233.812 54.5,223.5C 53.8165,223.863 53.1499,224.196 52.5,224.5C 52.5,223.5 52.5,222.5 52.5,221.5C 54.1439,221.286 55.6439,221.62 57,222.5C 57.7429,220.559 57.5762,218.726 56.5,217C 59.146,216.503 61.8127,216.336 64.5,216.5C 64.5277,220.484 62.861,221.484 59.5,219.5C 57.6801,231.047 57.0135,242.714 57.5,254.5 Z"/></g>
<g><path style="opacity:1" fill="#385787" d="M 144.5,239.5 C 144.325,241.621 144.659,243.621 145.5,245.5C 143.263,246.449 140.929,247.116 138.5,247.5C 137.631,245.283 137.298,242.95 137.5,240.5C 136.167,240.5 134.833,240.5 133.5,240.5C 133.447,234.804 133.78,229.138 134.5,223.5C 136.328,222.206 138.328,221.206 140.5,220.5C 142.079,226.826 143.412,233.159 144.5,239.5 Z"/></g>
<g><path style="opacity:0.973" fill="#8a96b0" d="M 148.5,223.5 C 147.308,225.113 146.308,226.78 145.5,228.5C 145.5,226.833 145.5,225.167 145.5,223.5C 146.5,223.5 147.5,223.5 148.5,223.5 Z"/></g>
<g><path style="opacity:0.906" fill="#657695" d="M 175.5,213.5 C 179.5,213.5 183.5,213.5 187.5,213.5C 187.5,224.167 187.5,234.833 187.5,245.5C 193.509,245.334 199.509,245.501 205.5,246C 206.451,249.057 206.784,252.223 206.5,255.5C 195.833,255.5 185.167,255.5 174.5,255.5C 174.185,241.421 174.518,227.421 175.5,213.5 Z"/></g>
<g><path style="opacity:1" fill="#395787" d="M 187.5,248.5 C 185.685,247.37 183.685,246.704 181.5,246.5C 181.704,250.281 180.037,252.614 176.5,253.5C 176.5,240.833 176.5,228.167 176.5,215.5C 179.833,215.5 183.167,215.5 186.5,215.5C 186.19,226.581 186.523,237.581 187.5,248.5 Z"/></g>
<g><path style="opacity:1" fill="#385786" d="M 217.5,228.5 C 217.5,237.167 217.5,245.833 217.5,254.5C 216.167,254.5 214.833,254.5 213.5,254.5C 213.661,244.478 214.161,234.478 215,224.5C 215.414,224.043 215.914,223.709 216.5,223.5C 218.626,224.909 218.96,226.576 217.5,228.5 Z"/></g>
<g><path style="opacity:0.431" fill="#a3b3c6" d="M 354.5,225.5 C 357.625,224.521 360.958,224.187 364.5,224.5C 364.828,235.014 364.494,245.347 363.5,255.5C 363.5,245.5 363.5,235.5 363.5,225.5C 360.5,225.5 357.5,225.5 354.5,225.5 Z"/></g>
<g><path style="opacity:0.988" fill="#8d9bb5" d="M 156.5,225.5 C 158.048,225.821 158.715,226.821 158.5,228.5C 160.5,228.5 162.5,228.5 164.5,228.5C 162.393,229.468 160.059,229.802 157.5,229.5C 157.567,228.041 157.234,226.708 156.5,225.5 Z"/></g>
<g><path style="opacity:1" fill="#657592" d="M 314.5,227.5 C 313.833,227.5 313.5,227.833 313.5,228.5C 311.579,227.637 309.579,226.971 307.5,226.5C 304.332,225.556 300.999,225.556 297.5,226.5C 299.634,224.967 302.134,224.3 305,224.5C 306.833,224.667 308.667,224.833 310.5,225C 312.32,225.2 313.653,226.034 314.5,227.5 Z"/></g>
<g><path style="opacity:0.4" fill="#b9c5d5" d="M 63.5,223.5 C 64.1667,223.5 64.8333,223.5 65.5,223.5C 64.6586,225.379 64.3253,227.379 64.5,229.5C 68.3714,229.185 72.0381,229.518 75.5,230.5C 71.5,230.5 67.5,230.5 63.5,230.5C 63.5,228.167 63.5,225.833 63.5,223.5 Z"/></g>
<g><path style="opacity:1" fill="#697896" d="M 405.5,225.5 C 408.976,224.357 412.642,224.19 416.5,225C 418.584,225.697 420.251,226.864 421.5,228.5C 416.327,226.665 410.994,225.665 405.5,225.5 Z"/></g>
<g><path style="opacity:1" fill="#395786" d="M 222.5,224.5 C 222.5,227.167 222.5,229.833 222.5,232.5C 226.531,231.485 230.531,231.485 234.5,232.5C 234.5,234.5 234.5,236.5 234.5,238.5C 230.629,238.185 226.962,238.518 223.5,239.5C 222.523,242.287 222.19,245.287 222.5,248.5C 228.833,248.5 235.167,248.5 241.5,248.5C 241.5,250.5 241.5,252.5 241.5,254.5C 234.833,254.5 228.167,254.5 221.5,254.5C 221.497,245.843 221.164,237.177 220.5,228.5C 221.167,227.167 221.833,225.833 222.5,224.5 Z"/></g>
<g><path style="opacity:1" fill="#3c5888" d="M 405.5,225.5 C 410.994,225.665 416.327,226.665 421.5,228.5C 421.286,230.144 421.62,231.644 422.5,233C 420.045,235.586 418.045,238.42 416.5,241.5C 416.816,237.475 416.983,233.475 417,229.5C 414.393,230.123 411.893,230.79 409.5,231.5C 408.849,230.909 408.182,230.243 407.5,229.5C 405.771,231.851 405.104,234.518 405.5,237.5C 404.5,237.5 403.5,237.5 402.5,237.5C 402.682,239.675 403.349,241.675 404.5,243.5C 402.164,247.479 399.997,247.146 398,242.5C 397.502,239.518 397.335,236.518 397.5,233.5C 398.5,229.167 401.167,226.5 405.5,225.5 Z"/></g>
<g><path style="opacity:1" fill="#485e85" d="M 307.5,226.5 C 304.955,226.151 302.955,226.984 301.5,229C 304.036,229.186 306.369,229.686 308.5,230.5C 305.833,230.5 303.167,230.5 300.5,230.5C 300.5,232.5 300.5,234.5 300.5,236.5C 300.5,236.833 300.5,237.167 300.5,237.5C 299.833,237.5 299.5,237.833 299.5,238.5C 298.632,235.673 298.632,232.673 299.5,229.5C 298.022,229.238 296.689,229.571 295.5,230.5C 292.395,235.351 291.061,240.684 291.5,246.5C 289.879,240.757 290.379,235.09 293,229.5C 294.129,227.859 295.629,226.859 297.5,226.5C 300.999,225.556 304.332,225.556 307.5,226.5 Z"/></g>
<g><path style="opacity:1" fill="#4f6791" d="M 393.5,231.5 C 390.5,231.5 387.5,231.5 384.5,231.5C 381.794,231.575 379.127,231.908 376.5,232.5C 373.713,231.523 370.713,231.19 367.5,231.5C 366.189,229.44 366.189,227.274 367.5,225C 376.167,224.333 384.833,224.333 393.5,225C 394.811,227.274 394.811,229.44 393.5,231.5 Z"/></g>
<g><path style="opacity:1" fill="#3b5687" d="M 217.5,228.5 C 218.5,228.5 219.5,228.5 220.5,228.5C 221.164,237.177 221.497,245.843 221.5,254.5C 220.167,254.5 218.833,254.5 217.5,254.5C 217.5,245.833 217.5,237.167 217.5,228.5 Z"/></g>
<g><path style="opacity:1" fill="#8192b0" d="M 308.5,230.5 C 310.075,232.114 310.741,234.114 310.5,236.5C 310.81,239.713 310.477,242.713 309.5,245.5C 309.867,241.033 309.367,236.7 308,232.5C 304.024,230.963 301.524,232.297 300.5,236.5C 300.5,234.5 300.5,232.5 300.5,230.5C 303.167,230.5 305.833,230.5 308.5,230.5 Z"/></g>
<g><path style="opacity:1" fill="#52688d" d="M 118.5,224.5 C 117.909,228.964 119.242,232.631 122.5,235.5C 124.928,241.616 127.261,247.783 129.5,254C 127.2,255.109 124.7,255.609 122,255.5C 119.833,255.167 117.667,254.833 115.5,254.5C 114.873,253.583 114.539,252.583 114.5,251.5C 116.942,251.354 117.609,252.187 116.5,254C 119.817,254.498 123.15,254.665 126.5,254.5C 126.324,251.273 125.657,248.273 124.5,245.5C 123.088,241.675 120.921,238.342 118,235.5C 117.506,233.866 117.34,232.199 117.5,230.5C 117.649,229.448 117.483,228.448 117,227.5C 115.605,228.815 114.605,228.481 114,226.5C 114.262,222.925 114.095,219.425 113.5,216C 110.101,215.454 106.768,215.787 103.5,217C 102.141,218.204 101.141,219.704 100.5,221.5C 99.8165,221.137 99.1499,220.804 98.5,220.5C 99.086,218.16 100.086,215.993 101.5,214C 105.833,213.333 110.167,213.333 114.5,214C 116.326,217.312 117.66,220.812 118.5,224.5 Z"/></g>
<g><path style="opacity:1" fill="#697a96" d="M 118.5,224.5 C 120.204,227.939 121.538,231.605 122.5,235.5C 119.242,232.631 117.909,228.964 118.5,224.5 Z"/></g>
<g><path style="opacity:0.998" fill="#6e7f9c" d="M 223.5,239.5 C 226.962,238.518 230.629,238.185 234.5,238.5C 234.5,236.5 234.5,234.5 234.5,232.5C 230.531,231.485 226.531,231.485 222.5,232.5C 222.5,229.833 222.5,227.167 222.5,224.5C 222.833,223.833 223.167,223.167 223.5,222.5C 223.833,222.5 224.167,222.5 224.5,222.5C 230.167,222.5 235.833,222.5 241.5,222.5C 241.5,220.833 241.5,219.167 241.5,217.5C 241.389,216.883 241.056,216.383 240.5,216C 231.173,215.5 221.839,215.334 212.5,215.5C 211.622,228.478 211.289,241.478 211.5,254.5C 211.5,254.833 211.5,255.167 211.5,255.5C 210.339,242.006 210.173,228.34 211,214.5C 221.439,213.181 231.939,213.181 242.5,214.5C 243.577,217.474 243.577,220.474 242.5,223.5C 236.491,223.334 230.491,223.501 224.5,224C 223.594,225.699 223.261,227.533 223.5,229.5C 227.182,229.335 230.848,229.501 234.5,230C 235.451,233.057 235.784,236.223 235.5,239.5C 231.5,239.5 227.5,239.5 223.5,239.5 Z"/></g>
<g><path style="opacity:1" fill="#395786" d="M 241.5,217.5 C 241.5,219.167 241.5,220.833 241.5,222.5C 235.833,222.5 230.167,222.5 224.5,222.5C 224.652,220.758 224.652,218.924 224.5,217C 230.218,216.26 235.885,216.427 241.5,217.5 Z"/></g>
<g><path style="opacity:0.996" fill="#3d5885" d="M 349.5,225.5 C 349.832,235.19 349.498,244.856 348.5,254.5C 347.833,251.167 347.167,247.833 346.5,244.5C 345.749,245.376 345.249,246.376 345,247.5C 344.79,245.942 344.29,244.609 343.5,243.5C 342.721,241.073 341.554,241.073 340,243.5C 338.322,239.635 337.155,235.635 336.5,231.5C 338.547,233.55 340.214,235.883 341.5,238.5C 341.56,239.043 341.893,239.376 342.5,239.5C 343.493,234.88 343.827,230.214 343.5,225.5C 345.5,225.5 347.5,225.5 349.5,225.5 Z"/></g>
<g><path style="opacity:0.977" fill="#3b5782" d="M 63.5,223.5 C 63.5,225.833 63.5,228.167 63.5,230.5C 67.5,230.5 71.5,230.5 75.5,230.5C 75.5,233.167 75.5,235.833 75.5,238.5C 72.5,238.5 69.5,238.5 66.5,238.5C 65.5213,236.855 64.188,235.521 62.5,234.5C 62.3994,230.757 62.7327,227.091 63.5,223.5 Z"/></g>
<g><path style="opacity:0.33" fill="#b1bdd0" d="M 264.5,225.5 C 260.167,225.5 255.833,225.5 251.5,225.5C 251.5,235.5 251.5,245.5 251.5,255.5C 250.506,245.347 250.172,235.014 250.5,224.5C 255.363,224.181 260.03,224.514 264.5,225.5 Z"/></g>
<g><path style="opacity:0.999" fill="#3b5888" d="M 333.5,227.5 C 335.262,228.262 336.262,229.596 336.5,231.5C 337.155,235.635 338.322,239.635 340,243.5C 341.554,241.073 342.721,241.073 343.5,243.5C 343.5,245.5 343.5,247.5 343.5,249.5C 340.218,249.193 337.552,247.859 335.5,245.5C 335.029,243.421 334.363,241.421 333.5,239.5C 330.877,237.735 327.877,237.068 324.5,237.5C 324.5,236.167 324.5,234.833 324.5,233.5C 326.564,233.313 328.564,232.813 330.5,232C 328.702,230.495 326.868,230.328 325,231.5C 324.506,229.866 324.34,228.199 324.5,226.5C 327.57,226.368 330.57,226.701 333.5,227.5 Z"/></g>
<g><path style="opacity:1" fill="#3e5983" d="M 448.5,225.5 C 452.14,225.475 454.473,227.142 455.5,230.5C 455.442,233.664 454.776,236.664 453.5,239.5C 452.5,239.5 451.5,239.5 450.5,239.5C 450.179,237.952 449.179,237.285 447.5,237.5C 448.209,236.596 449.209,236.263 450.5,236.5C 450.69,234.041 449.69,232.374 447.5,231.5C 449.71,230.545 450.043,229.045 448.5,227C 442.509,226.501 436.509,226.334 430.5,226.5C 430.343,227.873 430.51,229.207 431,230.5C 432.516,227.949 433.349,228.282 433.5,231.5C 435.167,231.5 436.833,231.5 438.5,231.5C 438.5,233.167 438.5,234.833 438.5,236.5C 439.5,237.167 440.5,237.833 441.5,238.5C 439.5,238.833 437.5,239.167 435.5,239.5C 435.833,237.5 436.167,235.5 436.5,233.5C 434.5,233.5 432.5,233.5 430.5,233.5C 430.334,239.509 430.501,245.509 431,251.5C 432.264,253.607 434.097,254.607 436.5,254.5C 436.653,251.423 435.986,248.589 434.5,246C 435.093,243.237 436.76,241.737 439.5,241.5C 438.71,242.794 437.71,243.961 436.5,245C 437.456,248.394 437.789,251.894 437.5,255.5C 434.833,255.5 432.167,255.5 429.5,255.5C 429.5,245.5 429.5,235.5 429.5,225.5C 435.833,225.5 442.167,225.5 448.5,225.5 Z M 438.5,231.5 C 440.527,231.338 442.527,231.505 444.5,232C 445.38,233.356 445.714,234.856 445.5,236.5C 443.167,236.5 440.833,236.5 438.5,236.5C 438.5,234.833 438.5,233.167 438.5,231.5 Z"/></g>
<g><path style="opacity:0.996" fill="#3b5689" d="M 447.5,231.5 C 444.456,228.848 441.456,228.848 438.5,231.5C 436.833,231.5 435.167,231.5 433.5,231.5C 433.349,228.282 432.516,227.949 431,230.5C 430.51,229.207 430.343,227.873 430.5,226.5C 436.509,226.334 442.509,226.501 448.5,227C 450.043,229.045 449.71,230.545 447.5,231.5 Z"/></g>
<g><path style="opacity:1" fill="#395787" d="M 264.5,227.5 C 264.748,232.174 265.748,236.507 267.5,240.5C 265.955,241.23 265.122,242.563 265,244.5C 263.723,242.253 262.223,240.253 260.5,238.5C 259.778,238.082 259.278,237.416 259,236.5C 258.601,236.728 258.435,237.062 258.5,237.5C 256.55,242.735 255.883,248.402 256.5,254.5C 255.167,254.5 253.833,254.5 252.5,254.5C 252.5,245.5 252.5,236.5 252.5,227.5C 256.559,226.436 260.559,226.436 264.5,227.5 Z"/></g>
<g><path style="opacity:0.984" fill="#5d7291" d="M 264.5,225.5 C 266.266,229.285 267.766,233.285 269,237.5C 270.231,233.296 271.731,229.296 273.5,225.5C 273.048,229.163 272.548,232.83 272,236.5C 270.931,238.407 269.431,239.741 267.5,240.5C 265.748,236.507 264.748,232.174 264.5,227.5C 264.5,226.833 264.5,226.167 264.5,225.5 Z"/></g>
<g><path style="opacity:0.569" fill="#8fa0b6" d="M 350.5,225.5 C 350.167,225.5 349.833,225.5 349.5,225.5C 347.5,225.5 345.5,225.5 343.5,225.5C 343.827,230.214 343.493,234.88 342.5,239.5C 341.893,239.376 341.56,239.043 341.5,238.5C 342.486,234.03 342.819,229.363 342.5,224.5C 345.385,224.194 348.052,224.527 350.5,225.5 Z"/></g>
<g><path style="opacity:1" fill="#4c658d" d="M 421.5,228.5 C 426.515,234.253 427.515,240.586 424.5,247.5C 424.167,247.5 423.833,247.5 423.5,247.5C 423.833,244.833 424.167,242.167 424.5,239.5C 423.325,239.281 422.325,239.614 421.5,240.5C 420.533,243.129 418.867,245.129 416.5,246.5C 416.5,244.833 416.5,243.167 416.5,241.5C 418.045,238.42 420.045,235.586 422.5,233C 421.62,231.644 421.286,230.144 421.5,228.5 Z"/></g>
<g><path style="opacity:1" fill="#3d5681" d="M 384.5,231.5 C 384.5,239.5 384.5,247.5 384.5,255.5C 381.833,255.5 379.167,255.5 376.5,255.5C 376.5,247.833 376.5,240.167 376.5,232.5C 379.127,231.908 381.794,231.575 384.5,231.5 Z"/></g>
<g><path style="opacity:1" fill="#395789" d="M 307.5,226.5 C 309.579,226.971 311.579,227.637 313.5,228.5C 314.295,231.423 315.628,234.09 317.5,236.5C 316.833,237.5 316.167,238.5 315.5,239.5C 316.754,241.643 316.754,243.643 315.5,245.5C 314.5,245.5 313.5,245.5 312.5,245.5C 312.664,242.813 312.497,240.146 312,237.5C 311.617,236.944 311.117,236.611 310.5,236.5C 310.741,234.114 310.075,232.114 308.5,230.5C 306.369,229.686 304.036,229.186 301.5,229C 302.955,226.984 304.955,226.151 307.5,226.5 Z"/></g>
<g><path style="opacity:0.353" fill="#afc3d5" d="M 109.5,235.5 C 110.833,236.5 110.833,237.5 109.5,238.5C 107.265,238.795 105.265,238.461 103.5,237.5C 106.082,237.975 108.082,237.308 109.5,235.5 Z"/></g>
<g><path style="opacity:1" fill="#52698c" d="M 314.5,227.5 C 318.684,230.52 320.684,234.687 320.5,240C 320.344,244.136 319.177,247.969 317,251.5C 316.184,252.823 315.017,253.489 313.5,253.5C 314.968,251.084 315.635,248.417 315.5,245.5C 316.754,243.643 316.754,241.643 315.5,239.5C 316.167,238.5 316.833,237.5 317.5,236.5C 315.628,234.09 314.295,231.423 313.5,228.5C 313.5,227.833 313.833,227.5 314.5,227.5 Z"/></g>
<g><path style="opacity:0.349" fill="#b1bfcf" d="M 448.5,225.5 C 442.167,225.5 435.833,225.5 429.5,225.5C 429.5,235.5 429.5,245.5 429.5,255.5C 428.506,245.347 428.172,235.014 428.5,224.5C 435.354,224.176 442.021,224.509 448.5,225.5 Z"/></g>
<g><path style="opacity:1" fill="#3a5688" d="M 441.5,238.5 C 443.028,238.517 443.528,239.184 443,240.5C 441.989,241.337 440.822,241.67 439.5,241.5C 436.76,241.737 435.093,243.237 434.5,246C 435.986,248.589 436.653,251.423 436.5,254.5C 434.097,254.607 432.264,253.607 431,251.5C 430.501,245.509 430.334,239.509 430.5,233.5C 432.5,233.5 434.5,233.5 436.5,233.5C 436.167,235.5 435.833,237.5 435.5,239.5C 437.5,239.167 439.5,238.833 441.5,238.5 Z"/></g>
<g><path style="opacity:0.784" fill="#6f7fa0" d="M 75.5,230.5 C 76.4767,233.287 76.81,236.287 76.5,239.5C 72.5,239.5 68.5,239.5 64.5,239.5C 64.8417,238.662 65.5084,238.328 66.5,238.5C 69.5,238.5 72.5,238.5 75.5,238.5C 75.5,235.833 75.5,233.167 75.5,230.5 Z"/></g>
<g><path style="opacity:0.998" fill="#466089" d="M 98.5,221.5 C 98.0637,226.188 97.0637,230.688 95.5,235C 95.4537,236.728 95.9537,238.228 97,239.5C 97.4974,236.854 97.6641,234.187 97.5,231.5C 98.5,231.5 99.5,231.5 100.5,231.5C 100.351,232.552 100.517,233.552 101,234.5C 101.667,233.167 102.667,232.167 104,231.5C 104.497,228.854 104.664,226.187 104.5,223.5C 105.5,223.5 106.5,223.5 107.5,223.5C 107.5,225.167 107.5,226.833 107.5,228.5C 105.408,231.088 104.075,234.088 103.5,237.5C 105.265,238.461 107.265,238.795 109.5,238.5C 107.173,240.03 104.84,241.697 102.5,243.5C 99.9823,240.874 97.3157,240.874 94.5,243.5C 93.914,243.291 93.414,242.957 93,242.5C 92.5838,244.55 91.4171,245.884 89.5,246.5C 92.2651,237.992 95.2651,229.659 98.5,221.5 Z"/></g>
<g><path style="opacity:0.443" fill="#9eadc6" d="M 273.5,225.5 C 277.97,224.514 282.637,224.181 287.5,224.5C 287.828,235.014 287.494,245.347 286.5,255.5C 286.5,245.5 286.5,235.5 286.5,225.5C 282.167,225.5 277.833,225.5 273.5,225.5 Z"/></g>
<g><path style="opacity:1" fill="#576d93" d="M 333.5,227.5 C 330.57,226.701 327.57,226.368 324.5,226.5C 324.34,228.199 324.506,229.866 325,231.5C 326.868,230.328 328.702,230.495 330.5,232C 328.564,232.813 326.564,233.313 324.5,233.5C 324.5,234.833 324.5,236.167 324.5,237.5C 327.877,237.068 330.877,237.735 333.5,239.5C 332.5,239.5 331.5,239.5 330.5,239.5C 330.5,244.833 330.5,250.167 330.5,255.5C 327.833,255.5 325.167,255.5 322.5,255.5C 322.334,245.494 322.5,235.494 323,225.5C 326.073,224.383 329.24,224.216 332.5,225C 333.252,225.671 333.586,226.504 333.5,227.5 Z"/></g>
<g><path style="opacity:0.988" fill="#445c80" d="M 354.5,225.5 C 357.5,225.5 360.5,225.5 363.5,225.5C 363.5,235.5 363.5,245.5 363.5,255.5C 360.5,255.5 357.5,255.5 354.5,255.5C 354.5,245.5 354.5,235.5 354.5,225.5 Z"/></g>
<g><path style="opacity:1" fill="#395786" d="M 359.5,226.5 C 360.5,226.5 361.5,226.5 362.5,226.5C 362.5,235.833 362.5,245.167 362.5,254.5C 360.5,254.5 358.5,254.5 356.5,254.5C 356.795,247.774 356.462,241.108 355.5,234.5C 356.077,232.45 357.41,231.45 359.5,231.5C 359.5,229.833 359.5,228.167 359.5,226.5 Z"/></g>
<g><path style="opacity:1" fill="#395789" d="M 117.5,230.5 C 117.34,232.199 117.506,233.866 118,235.5C 120.921,238.342 123.088,241.675 124.5,245.5C 124.649,246.552 124.483,247.552 124,248.5C 122.26,247.284 121.26,245.618 121,243.5C 118.841,245.956 118.008,245.29 118.5,241.5C 114.2,241.185 112.533,238.851 113.5,234.5C 113.167,231.5 114.5,230.167 117.5,230.5 Z"/></g>
<g><path style="opacity:0.993" fill="#4d658d" d="M 164.5,253.5 C 164.611,252.883 164.944,252.383 165.5,252C 164.606,250.896 163.606,249.73 162.5,248.5C 162.306,246.088 160.973,245.088 158.5,245.5C 158.5,244.167 158.5,242.833 158.5,241.5C 156.167,241.5 153.833,241.5 151.5,241.5C 150.532,239.393 150.198,237.059 150.5,234.5C 157.09,234.189 163.59,234.522 170,235.5C 170.5,242.158 170.666,248.825 170.5,255.5C 167.99,255.946 165.99,255.28 164.5,253.5 Z"/></g>
<g><path style="opacity:0.971" fill="#3a5787" d="M 159.5,235.5 C 162.518,235.704 165.518,236.037 168.5,236.5C 168.829,242.537 168.496,248.537 167.5,254.5C 167.545,250.769 167.379,246.769 167,242.5C 166.308,241.975 165.808,241.308 165.5,240.5C 161.547,239.985 157.547,239.819 153.5,240C 152.663,238.989 152.33,237.822 152.5,236.5C 155.059,236.802 157.393,236.468 159.5,235.5 Z"/></g>
<g><path style="opacity:0.717" fill="#8496b2" d="M 367.5,231.5 C 370.713,231.19 373.713,231.523 376.5,232.5C 376.5,240.167 376.5,247.833 376.5,255.5C 375.508,248.018 375.175,240.352 375.5,232.5C 372.615,232.806 369.948,232.473 367.5,231.5 Z"/></g>
<g><path style="opacity:0.552" fill="#9aa8c3" d="M 384.5,231.5 C 387.5,231.5 390.5,231.5 393.5,231.5C 391.052,232.473 388.385,232.806 385.5,232.5C 385.825,240.352 385.492,248.018 384.5,255.5C 384.5,247.5 384.5,239.5 384.5,231.5 Z"/></g>
<g><path style="opacity:1" fill="#3d5984" d="M 273.5,225.5 C 277.833,225.5 282.167,225.5 286.5,225.5C 286.5,235.5 286.5,245.5 286.5,255.5C 283.833,255.5 281.167,255.5 278.5,255.5C 278.5,255.167 278.5,254.833 278.5,254.5C 280.833,254.5 283.167,254.5 285.5,254.5C 285.174,252.339 284.174,250.506 282.5,249C 285.601,241.842 286.268,234.342 284.5,226.5C 283.548,228.045 283.215,229.712 283.5,231.5C 280.167,231.5 276.833,231.5 273.5,231.5C 273.5,234.167 273.5,236.833 273.5,239.5C 272.5,239.5 271.5,239.5 270.5,239.5C 269.25,241.968 269.417,244.301 271,246.5C 271.852,245.429 272.685,244.429 273.5,243.5C 273.5,244.833 273.5,246.167 273.5,247.5C 273.5,247.833 273.5,248.167 273.5,248.5C 272.504,248.414 271.671,248.748 271,249.5C 270.506,251.134 270.34,252.801 270.5,254.5C 268.833,254.5 267.167,254.5 265.5,254.5C 265.913,251.68 264.913,249.68 262.5,248.5C 261.226,246.007 260.56,243.341 260.5,240.5C 260.5,239.833 260.5,239.167 260.5,238.5C 262.223,240.253 263.723,242.253 265,244.5C 265.122,242.563 265.955,241.23 267.5,240.5C 269.431,239.741 270.931,238.407 272,236.5C 272.548,232.83 273.048,229.163 273.5,225.5 Z"/></g>
<g><path style="opacity:1" fill="#395786" d="M 377.5,235.5 C 379.5,235.5 381.5,235.5 383.5,235.5C 383.5,241.833 383.5,248.167 383.5,254.5C 381.5,254.5 379.5,254.5 377.5,254.5C 377.5,248.167 377.5,241.833 377.5,235.5 Z"/></g>
<g><path style="opacity:0.999" fill="#3a5788" d="M 102.5,243.5 C 99.848,243.55 98.848,244.55 99.5,246.5C 93.9325,246.551 92.2659,249.051 94.5,254C 92.5273,254.495 90.5273,254.662 88.5,254.5C 88.9926,252.194 89.3259,249.861 89.5,247.5C 89.5,247.167 89.5,246.833 89.5,246.5C 91.4171,245.884 92.5838,244.55 93,242.5C 93.414,242.957 93.914,243.291 94.5,243.5C 97.3157,240.874 99.9823,240.874 102.5,243.5 Z"/></g>
<g><path style="opacity:0.537" fill="#788eaa" d="M 151.5,241.5 C 153.833,241.5 156.167,241.5 158.5,241.5C 158.5,242.833 158.5,244.167 158.5,245.5C 157.609,246.11 156.609,246.443 155.5,246.5C 156.141,245.518 156.807,244.518 157.5,243.5C 155.369,242.831 153.369,242.165 151.5,241.5 Z"/></g>
<g><path style="opacity:0.949" fill="#66789a" d="M 278.5,254.5 C 278.5,254.833 278.5,255.167 278.5,255.5C 277.673,250.015 277.173,244.348 277,238.5C 276.1,241.718 274.933,244.718 273.5,247.5C 273.5,246.167 273.5,244.833 273.5,243.5C 274.639,240.996 275.306,238.33 275.5,235.5C 276.5,235.5 277.5,235.5 278.5,235.5C 278.5,241.833 278.5,248.167 278.5,254.5 Z"/></g>
<g><path style="opacity:1" fill="#3a5687" d="M 278.5,254.5 C 278.5,248.167 278.5,241.833 278.5,235.5C 277.5,235.5 276.5,235.5 275.5,235.5C 275.306,238.33 274.639,240.996 273.5,243.5C 272.685,244.429 271.852,245.429 271,246.5C 269.417,244.301 269.25,241.968 270.5,239.5C 271.5,239.5 272.5,239.5 273.5,239.5C 273.5,236.833 273.5,234.167 273.5,231.5C 276.833,231.5 280.167,231.5 283.5,231.5C 283.215,229.712 283.548,228.045 284.5,226.5C 286.268,234.342 285.601,241.842 282.5,249C 284.174,250.506 285.174,252.339 285.5,254.5C 283.167,254.5 280.833,254.5 278.5,254.5 Z"/></g>
<g><path style="opacity:0.988" fill="#54688d" d="M 447.5,231.5 C 449.69,232.374 450.69,234.041 450.5,236.5C 449.209,236.263 448.209,236.596 447.5,237.5C 445.029,242.638 444.862,247.972 447,253.5C 449.041,254.423 451.208,254.756 453.5,254.5C 453.5,254.833 453.5,255.167 453.5,255.5C 450.753,255.813 448.086,255.48 445.5,254.5C 440.817,239.845 438.15,240.178 437.5,255.5C 437.789,251.894 437.456,248.394 436.5,245C 437.71,243.961 438.71,242.794 439.5,241.5C 440.822,241.67 441.989,241.337 443,240.5C 443.528,239.184 443.028,238.517 441.5,238.5C 440.5,237.833 439.5,237.167 438.5,236.5C 440.833,236.5 443.167,236.5 445.5,236.5C 445.714,234.856 445.38,233.356 444.5,232C 442.527,231.505 440.527,231.338 438.5,231.5C 441.456,228.848 444.456,228.848 447.5,231.5 Z"/></g>
<g><path style="opacity:0.992" fill="#778ca6" d="M 145.5,228.5 C 145.334,232.846 145.501,237.179 146,241.5C 146.366,243.452 147.199,245.118 148.5,246.5C 147.883,246.611 147.383,246.944 147,247.5C 146.722,246.584 146.222,245.918 145.5,245.5C 144.659,243.621 144.325,241.621 144.5,239.5C 144.185,235.629 144.518,231.962 145.5,228.5 Z"/></g>
<g><path style="opacity:0.011" fill="#f4fafc" d="M 260.5,238.5 C 260.5,239.167 260.5,239.833 260.5,240.5C 259.833,245.167 259.167,249.833 258.5,254.5C 258.5,248.833 258.5,243.167 258.5,237.5C 258.435,237.062 258.601,236.728 259,236.5C 259.278,237.416 259.778,238.082 260.5,238.5 Z"/></g>
<g><path style="opacity:0.035" fill="#d3e6f1" d="M 64.5,239.5 C 64.5,241.5 64.5,243.5 64.5,245.5C 71.0221,245.177 77.3554,245.51 83.5,246.5C 76.8333,246.5 70.1667,246.5 63.5,246.5C 63.1984,243.941 63.5318,241.607 64.5,239.5 Z"/></g>
<g><path style="opacity:1" fill="#53688e" d="M 134.5,223.5 C 133.78,229.138 133.447,234.804 133.5,240.5C 134.833,240.5 136.167,240.5 137.5,240.5C 137.298,242.95 137.631,245.283 138.5,247.5C 140.438,249.163 142.772,249.829 145.5,249.5C 144.824,253.49 146.49,255.157 150.5,254.5C 151.833,254.333 153.167,254.167 154.5,254C 153.833,253.667 153.167,253.333 152.5,253C 155.988,251.562 159.321,250.062 162.5,248.5C 163.606,249.73 164.606,250.896 165.5,252C 164.944,252.383 164.611,252.883 164.5,253.5C 162.281,252.46 160.281,252.96 158.5,255C 145.198,259.1 136.365,254.6 132,241.5C 131.333,237.167 131.333,232.833 132,228.5C 132.374,226.509 133.207,224.842 134.5,223.5 Z"/></g>
<g><path style="opacity:0.435" fill="#8fa2bd" d="M 333.5,239.5 C 334.363,241.421 335.029,243.421 335.5,245.5C 334.115,244.426 332.949,243.093 332,241.5C 331.826,246.351 331.326,251.018 330.5,255.5C 330.5,250.167 330.5,244.833 330.5,239.5C 331.5,239.5 332.5,239.5 333.5,239.5 Z"/></g>
<g><path style="opacity:1" fill="#52688d" d="M 397.5,233.5 C 397.335,236.518 397.502,239.518 398,242.5C 399.997,247.146 402.164,247.479 404.5,243.5C 403.349,241.675 402.682,239.675 402.5,237.5C 403.5,237.5 404.5,237.5 405.5,237.5C 405.237,241.6 405.57,245.6 406.5,249.5C 405.022,249.238 403.689,249.571 402.5,250.5C 403.63,251.622 404.297,252.956 404.5,254.5C 398.543,251.959 395.543,247.292 395.5,240.5C 395.724,237.92 396.391,235.586 397.5,233.5 Z"/></g>
<g><path style="opacity:0.98" fill="#6f809f" d="M 409.5,231.5 C 407.135,233.937 406.135,236.937 406.5,240.5C 405.985,244.46 407.318,247.46 410.5,249.5C 409.167,249.5 407.833,249.5 406.5,249.5C 405.57,245.6 405.237,241.6 405.5,237.5C 405.104,234.518 405.771,231.851 407.5,229.5C 408.182,230.243 408.849,230.909 409.5,231.5 Z"/></g>
<g><path style="opacity:0.988" fill="#647a9c" d="M 416.5,241.5 C 416.5,243.167 416.5,244.833 416.5,246.5C 416.762,247.978 416.429,249.311 415.5,250.5C 414.264,249.754 412.93,249.421 411.5,249.5C 413.144,248.684 414.31,247.35 415,245.5C 415.947,240.96 415.447,236.626 413.5,232.5C 412.264,231.754 410.93,231.421 409.5,231.5C 411.893,230.79 414.393,230.123 417,229.5C 416.983,233.475 416.816,237.475 416.5,241.5 Z"/></g>
<g><path style="opacity:1" fill="#3f567b" d="M 264.5,225.5 C 264.5,226.167 264.5,226.833 264.5,227.5C 260.559,226.436 256.559,226.436 252.5,227.5C 252.5,236.5 252.5,245.5 252.5,254.5C 253.833,254.5 255.167,254.5 256.5,254.5C 255.883,248.402 256.55,242.735 258.5,237.5C 258.5,243.167 258.5,248.833 258.5,254.5C 256.393,255.468 254.059,255.802 251.5,255.5C 251.5,245.5 251.5,235.5 251.5,225.5C 255.833,225.5 260.167,225.5 264.5,225.5 Z"/></g>
<g><path style="opacity:1" fill="#667898" d="M 455.5,230.5 C 457.494,235.579 456.161,239.746 451.5,243C 452.875,246.957 454.542,250.791 456.5,254.5C 455.675,255.386 454.675,255.719 453.5,255.5C 453.5,255.167 453.5,254.833 453.5,254.5C 452.121,250.524 450.454,246.691 448.5,243C 449.085,241.698 449.751,240.531 450.5,239.5C 451.5,239.5 452.5,239.5 453.5,239.5C 454.776,236.664 455.442,233.664 455.5,230.5 Z"/></g>
<g><path style="opacity:0.992" fill="#48618c" d="M 107.5,228.5 C 109.052,230.035 110.385,231.869 111.5,234C 112.094,234.464 112.761,234.631 113.5,234.5C 112.533,238.851 114.2,241.185 118.5,241.5C 118.008,245.29 118.841,245.956 121,243.5C 121.26,245.618 122.26,247.284 124,248.5C 124.483,247.552 124.649,246.552 124.5,245.5C 125.657,248.273 126.324,251.273 126.5,254.5C 123.15,254.665 119.817,254.498 116.5,254C 117.609,252.187 116.942,251.354 114.5,251.5C 113.596,250.791 113.263,249.791 113.5,248.5C 109.116,248.174 104.783,248.508 100.5,249.5C 99.2528,251.323 98.5861,253.323 98.5,255.5C 94.5,255.5 90.5,255.5 86.5,255.5C 86.9802,252.557 87.9802,249.89 89.5,247.5C 89.3259,249.861 88.9926,252.194 88.5,254.5C 90.5273,254.662 92.5273,254.495 94.5,254C 92.2659,249.051 93.9325,246.551 99.5,246.5C 98.848,244.55 99.848,243.55 102.5,243.5C 104.84,241.697 107.173,240.03 109.5,238.5C 110.833,237.5 110.833,236.5 109.5,235.5C 108.434,233.299 107.767,230.965 107.5,228.5 Z"/></g>
<g><path style="opacity:1" fill="#3a5787" d="M 299.5,238.5 C 297.773,247.438 301.44,251.771 310.5,251.5C 308.058,252.994 305.391,253.994 302.5,254.5C 301.572,252.665 300.406,252.332 299,253.5C 297.812,252.437 297.312,251.103 297.5,249.5C 296.167,249.5 294.833,249.5 293.5,249.5C 293.715,247.821 293.048,246.821 291.5,246.5C 291.061,240.684 292.395,235.351 295.5,230.5C 296.689,229.571 298.022,229.238 299.5,229.5C 298.632,232.673 298.632,235.673 299.5,238.5 Z"/></g>
<g><path style="opacity:0.994" fill="#395787" d="M 63.5,246.5 C 68.9851,247.327 74.6518,247.827 80.5,248C 82.2826,249.067 82.7826,250.567 82,252.5C 74.7782,254.444 67.2782,255.111 59.5,254.5C 59.3335,244.494 59.5002,234.494 60,224.5C 59.8931,232.203 61.0598,239.537 63.5,246.5 Z"/></g>
<g><path style="opacity:1" fill="#54698f" d="M 310.5,236.5 C 311.117,236.611 311.617,236.944 312,237.5C 312.497,240.146 312.664,242.813 312.5,245.5C 313.5,245.5 314.5,245.5 315.5,245.5C 315.635,248.417 314.968,251.084 313.5,253.5C 305.421,258.252 298.254,256.919 292,249.5C 291.517,248.552 291.351,247.552 291.5,246.5C 293.048,246.821 293.715,247.821 293.5,249.5C 294.833,249.5 296.167,249.5 297.5,249.5C 297.312,251.103 297.812,252.437 299,253.5C 300.406,252.332 301.572,252.665 302.5,254.5C 305.391,253.994 308.058,252.994 310.5,251.5C 301.44,251.771 297.773,247.438 299.5,238.5C 299.5,237.833 299.833,237.5 300.5,237.5C 300.196,241.215 300.863,244.715 302.5,248C 305.614,249.087 307.947,248.254 309.5,245.5C 310.477,242.713 310.81,239.713 310.5,236.5 Z"/></g>
<g><path style="opacity:1" fill="#4a6287" d="M 349.5,225.5 C 349.833,225.5 350.167,225.5 350.5,225.5C 350.5,235.5 350.5,245.5 350.5,255.5C 347.813,255.664 345.146,255.497 342.5,255C 339.949,251.956 337.616,248.789 335.5,245.5C 337.552,247.859 340.218,249.193 343.5,249.5C 343.5,247.5 343.5,245.5 343.5,243.5C 344.29,244.609 344.79,245.942 345,247.5C 345.249,246.376 345.749,245.376 346.5,244.5C 347.167,247.833 347.833,251.167 348.5,254.5C 349.498,244.856 349.832,235.19 349.5,225.5 Z"/></g>
<g><path style="opacity:0.976" fill="#647594" d="M 423.5,247.5 C 423.833,247.5 424.167,247.5 424.5,247.5C 423.719,251.404 421.385,253.737 417.5,254.5C 418.107,250.898 420.107,248.564 423.5,247.5 Z"/></g>
<g><path style="opacity:1" fill="#385788" d="M 447.5,237.5 C 449.179,237.285 450.179,237.952 450.5,239.5C 449.751,240.531 449.085,241.698 448.5,243C 450.454,246.691 452.121,250.524 453.5,254.5C 451.208,254.756 449.041,254.423 447,253.5C 444.862,247.972 445.029,242.638 447.5,237.5 Z"/></g>
<g><path style="opacity:1" fill="#3f5c8b" d="M 145.5,245.5 C 146.222,245.918 146.722,246.584 147,247.5C 147.383,246.944 147.883,246.611 148.5,246.5C 150.833,246.5 153.167,246.5 155.5,246.5C 156.609,246.443 157.609,246.11 158.5,245.5C 160.973,245.088 162.306,246.088 162.5,248.5C 159.321,250.062 155.988,251.562 152.5,253C 153.167,253.333 153.833,253.667 154.5,254C 153.167,254.167 151.833,254.333 150.5,254.5C 146.49,255.157 144.824,253.49 145.5,249.5C 142.772,249.829 140.438,249.163 138.5,247.5C 140.929,247.116 143.263,246.449 145.5,245.5 Z"/></g>
<g><path style="opacity:0.999" fill="#395787" d="M 187.5,248.5 C 193.13,247.708 198.797,247.375 204.5,247.5C 204.5,249.833 204.5,252.167 204.5,254.5C 194.985,254.827 185.652,254.494 176.5,253.5C 180.037,252.614 181.704,250.281 181.5,246.5C 183.685,246.704 185.685,247.37 187.5,248.5 Z"/></g>
<g><path style="opacity:1" fill="#445d8b" d="M 423.5,247.5 C 420.107,248.564 418.107,250.898 417.5,254.5C 413.167,257.167 408.833,257.167 404.5,254.5C 404.297,252.956 403.63,251.622 402.5,250.5C 403.689,249.571 405.022,249.238 406.5,249.5C 407.833,249.5 409.167,249.5 410.5,249.5C 410.833,249.5 411.167,249.5 411.5,249.5C 412.93,249.421 414.264,249.754 415.5,250.5C 416.429,249.311 416.762,247.978 416.5,246.5C 418.867,245.129 420.533,243.129 421.5,240.5C 422.325,239.614 423.325,239.281 424.5,239.5C 424.167,242.167 423.833,244.833 423.5,247.5 Z"/></g>
<g><path style="opacity:0.988" fill="#6b7c9b" d="M 65.5,223.5 C 64.8333,223.5 64.1667,223.5 63.5,223.5C 69.6446,222.51 75.9779,222.177 82.5,222.5C 82.9167,219.921 82.25,217.754 80.5,216C 71.1726,215.5 61.8393,215.334 52.5,215.5C 52.5,217.5 52.5,219.5 52.5,221.5C 52.5,222.5 52.5,223.5 52.5,224.5C 52.5,234.5 52.5,244.5 52.5,254.5C 53.5,254.5 54.5,254.5 55.5,254.5C 56.1667,254.5 56.8333,254.5 57.5,254.5C 58.1667,254.5 58.8333,254.5 59.5,254.5C 67.2782,255.111 74.7782,254.444 82,252.5C 82.7826,250.567 82.2826,249.067 80.5,248C 74.6518,247.827 68.9851,247.327 63.5,246.5C 70.1667,246.5 76.8333,246.5 83.5,246.5C 84.4767,249.287 84.81,252.287 84.5,255.5C 73.252,255.821 62.0854,255.487 51,254.5C 50.3162,240.993 50.4829,227.66 51.5,214.5C 61.6096,213.507 71.943,213.341 82.5,214C 83.4505,217.057 83.7839,220.223 83.5,223.5C 77.5,223.5 71.5,223.5 65.5,223.5 Z"/></g>
<g><path style="opacity:0.975" fill="#5d7492" d="M 223.5,239.5 C 223.5,241.5 223.5,243.5 223.5,245.5C 229.842,245.334 236.175,245.5 242.5,246C 243.451,249.057 243.784,252.223 243.5,255.5C 232.833,255.5 222.167,255.5 211.5,255.5C 211.5,255.167 211.5,254.833 211.5,254.5C 211.833,254.5 212.167,254.5 212.5,254.5C 212.833,254.5 213.167,254.5 213.5,254.5C 214.833,254.5 216.167,254.5 217.5,254.5C 218.833,254.5 220.167,254.5 221.5,254.5C 228.167,254.5 234.833,254.5 241.5,254.5C 241.5,252.5 241.5,250.5 241.5,248.5C 235.167,248.5 228.833,248.5 222.5,248.5C 222.19,245.287 222.523,242.287 223.5,239.5 Z"/></g>
<g><path style="opacity:0.953" fill="#5e7291" d="M 262.5,248.5 C 264.913,249.68 265.913,251.68 265.5,254.5C 267.167,254.5 268.833,254.5 270.5,254.5C 270.34,252.801 270.506,251.134 271,249.5C 271.671,248.748 272.504,248.414 273.5,248.5C 273.27,254.661 270.27,256.661 264.5,254.5C 263.628,252.55 262.961,250.55 262.5,248.5 Z"/></g>
</svg>
