<svg version="1.1" id="Layer_1" xmlns="http://www.w3.org/2000/svg" xmlns:xlink="http://www.w3.org/1999/xlink" x="0px" y="0px"
	 width="100%" viewBox="0 0 429 76" enable-background="new 0 0 429 76" xml:space="preserve">
<path fill="#FDFDFE" opacity="1.000000" stroke="none" 
	d="
M322.000000,77.000000 
	C214.666687,77.000000 107.833359,77.000000 1.000029,77.000000 
	C1.000019,51.666683 1.000019,26.333364 1.000010,1.000036 
	C143.999969,1.000024 286.999939,1.000024 429.999939,1.000012 
	C429.999939,26.333298 429.999939,51.666595 429.999969,76.999947 
	C394.166656,77.000000 358.333344,77.000000 322.000000,77.000000 
M105.569618,42.781956 
	C105.739265,39.302792 105.319008,35.646904 106.289436,32.407642 
	C106.918701,30.307211 109.420174,27.643032 111.372643,27.379559 
	C113.329987,27.115429 115.753571,29.372414 117.753929,30.825691 
	C118.541870,31.398134 118.737289,32.786163 119.303978,34.024498 
	C123.015495,33.351700 126.508362,32.718540 130.039597,32.078426 
	C127.838676,23.484667 121.915916,18.792562 113.269699,18.287918 
	C104.651421,17.784904 97.065582,22.530033 93.861244,30.428371 
	C90.167358,39.533398 92.388687,50.604355 99.032356,56.200821 
	C105.703415,61.820343 114.107773,61.798660 122.869240,56.437393 
	C125.199074,57.889214 127.316902,59.208927 130.628723,61.272671 
	C130.628723,53.748444 130.756592,47.948879 130.510605,42.165218 
	C130.466431,41.126816 128.923187,39.335381 127.998085,39.286293 
	C122.735176,39.007034 117.449814,39.150940 112.263062,39.150940 
	C112.263062,41.943680 112.263062,44.160587 112.263062,46.396152 
	C114.444031,46.657234 116.200928,46.867554 117.957832,47.077869 
	C118.177116,47.458458 118.396400,47.839046 118.615677,48.219635 
	C117.081650,49.384884 115.711273,51.051025 113.981209,51.616295 
	C109.726540,53.006447 106.719704,49.940296 105.569618,42.781956 
M193.482330,50.952675 
	C190.371948,50.952675 187.261551,50.952675 184.202972,50.952675 
	C184.202972,48.284096 184.202972,46.232643 184.202972,43.719406 
	C188.173904,43.719406 191.764984,43.719406 195.471252,43.719406 
	C195.471252,40.557449 195.471252,37.876850 195.471252,34.768406 
	C191.432770,34.768406 187.831879,34.768406 184.058838,34.768406 
	C184.058838,32.407803 184.058838,30.483379 184.058838,27.982885 
	C190.345703,27.982885 196.413315,27.982885 202.693268,27.982885 
	C202.693268,24.700050 202.693268,21.997631 202.693268,19.223938 
	C192.106140,19.223938 181.862488,19.223938 171.437866,19.223938 
	C171.437866,32.865665 171.437866,46.224972 171.437866,59.717300 
	C182.215988,59.717300 192.615936,59.717300 203.285812,59.717300 
	C203.285812,56.715633 203.285812,54.003067 203.285812,50.952663 
	C200.075546,50.952663 197.263184,50.952663 193.482330,50.952675 
M58.426567,27.906986 
	C54.750439,38.391483 51.074306,48.875977 47.172955,60.002815 
	C50.431652,60.002815 52.436882,60.205948 54.376534,59.936680 
	C55.851475,59.731922 58.424355,59.043198 58.490623,58.370880 
	C59.224941,50.920830 64.539467,52.160007 69.476357,51.907585 
	C73.038063,51.725475 74.675346,53.007389 75.216637,56.311741 
	C75.708527,59.314503 77.504921,60.340206 80.513657,60.057320 
	C83.250565,59.799992 86.030746,60.002842 88.674271,60.002842 
	C88.847664,59.075993 89.042480,58.706551 88.949181,58.436733 
	C84.671776,46.066959 80.397781,33.695717 76.012268,21.364164 
	C75.681099,20.432957 74.668312,19.375986 73.747108,19.081045 
	C66.410019,16.731909 61.443855,19.345789 58.892632,26.715675 
	C58.838341,26.872503 58.798374,27.034286 58.426567,27.906986 
M11.927241,22.679756 
	C11.927241,34.946690 11.927241,47.213619 11.927241,59.725212 
	C22.902050,59.725212 33.288872,59.725212 43.894058,59.725212 
	C43.894058,56.744064 43.894058,54.041286 43.894058,50.819565 
	C37.327694,50.819565 31.096830,50.819565 24.833006,50.819565 
	C24.833006,48.249035 24.833006,46.209419 24.833006,43.864208 
	C28.420265,43.864208 32.192577,44.910767 34.526039,43.528442 
	C36.347015,42.449711 36.380169,38.353016 37.448429,34.796173 
	C32.168716,34.796173 28.575895,34.796173 24.841522,34.796173 
	C24.841522,32.315979 24.841522,30.277704 24.841522,27.999031 
	C30.104055,27.999031 34.933743,27.808479 39.739773,28.063589 
	C43.150200,28.244619 44.253036,26.858221 43.897289,23.709511 
	C43.735294,22.275753 43.703644,20.827271 43.586010,18.958803 
	C33.646561,18.958803 24.025454,18.890156 14.409382,19.078575 
	C13.566354,19.095093 12.756361,20.797480 11.927241,22.679756 
M247.562027,33.966061 
	C248.043961,30.530634 246.645325,29.028332 243.118103,29.428169 
	C241.476624,29.614246 239.782379,29.597147 238.136917,29.428841 
	C235.145096,29.122818 233.572922,30.236300 232.913773,33.288761 
	C232.223663,36.484535 230.996078,39.564236 229.700409,43.650326 
	C227.960434,38.676220 227.665543,33.300411 224.869217,31.092031 
	C221.972641,28.804489 216.650650,29.588072 212.072403,28.986717 
	C212.072403,39.904236 212.072403,49.762318 212.072403,59.723007 
	C214.492920,59.723007 216.556778,59.723007 219.124496,59.723007 
	C219.124496,53.683765 219.124496,47.900848 219.124496,42.117931 
	C221.449493,46.922249 222.855804,51.845638 224.751190,56.572937 
	C225.321671,57.995770 227.240845,59.739788 228.562973,59.757175 
	C229.888214,59.774605 231.905365,58.082497 232.458282,56.681488 
	C234.357910,51.867966 235.748962,46.853733 237.333847,41.915997 
	C237.685791,41.975163 238.037750,42.034328 238.389709,42.093498 
	C238.389709,47.992619 238.389709,53.891739 238.389709,59.624378 
	C241.652222,59.624378 244.380661,59.624378 247.562759,59.624378 
	C247.562759,51.131702 247.562759,43.008587 247.562027,33.966061 
M156.499115,50.946827 
	C153.742203,50.946827 150.985306,50.946827 147.835602,50.946827 
	C147.835602,39.954399 147.835602,29.692553 147.835602,19.278284 
	C143.537323,19.278284 139.658676,19.278284 135.723328,19.278284 
	C135.723328,32.982121 135.723328,46.340595 135.723328,59.732777 
	C146.125748,59.732777 156.050964,59.732777 166.284653,59.732777 
	C166.284653,56.740696 166.284653,54.026176 166.284653,50.946812 
	C163.086716,50.946812 160.277039,50.946812 156.499115,50.946827 
M310.939026,33.839958 
	C310.607605,28.781721 310.105316,28.530113 303.149902,30.380354 
	C303.149902,34.392075 303.149902,38.581612 303.149902,44.308929 
	C299.989349,40.003288 297.422302,37.178883 295.641663,33.924236 
	C292.904205,28.920750 288.973267,28.728413 284.285583,29.984827 
	C284.285583,40.031162 284.285583,49.908932 284.285583,59.800594 
	C286.768860,59.800594 288.887970,59.800594 291.836060,59.800594 
	C291.836060,54.858479 291.836060,50.105892 291.836060,45.493305 
	C299.087219,49.473892 298.815094,61.907696 310.939331,59.709846 
	C310.939331,51.302513 310.939331,43.035259 310.939026,33.839958 
M389.734497,31.858284 
	C389.734497,41.118271 389.734497,50.378262 389.734497,59.653160 
	C393.137421,59.653160 395.860535,59.653160 398.982574,59.653160 
	C398.982574,57.505203 398.982574,55.704418 398.982574,53.903629 
	C398.982574,51.987839 398.982574,50.072044 398.982574,48.156254 
	C399.578156,47.912628 400.173737,47.669006 400.769318,47.425385 
	C401.883240,49.207020 403.316681,50.866081 404.055298,52.791683 
	C407.131287,60.810951 407.054565,60.840378 416.417358,59.454140 
	C414.654846,55.266350 412.945709,51.205399 411.150391,46.939651 
	C411.666687,46.518284 412.138794,46.108620 412.635590,45.731506 
	C415.840088,43.299038 417.394592,40.194252 416.305359,36.162968 
	C415.190460,32.036690 411.964355,30.434439 408.114716,29.964588 
	C405.150055,29.602751 402.125641,29.356571 399.154358,29.525728 
	C396.025726,29.703844 392.928650,30.436506 389.734497,31.858284 
M280.341278,46.972580 
	C280.708496,38.036549 277.609283,32.314522 271.150269,30.003355 
	C262.679443,26.972315 254.260025,31.117235 251.763260,39.547642 
	C249.068726,48.645813 253.246017,57.699940 261.121490,59.831242 
	C270.724121,62.429962 278.251251,57.672703 280.341278,46.972580 
M364.165222,58.743317 
	C366.574890,59.262897 368.975159,60.174995 371.395905,60.233101 
	C381.105804,60.466171 386.667999,53.918053 386.104889,43.235432 
	C385.626221,34.154427 378.679535,28.159746 369.774231,29.142857 
	C363.603210,29.824108 358.987152,33.777084 357.357666,39.775902 
	C355.341736,47.197189 357.520721,53.759312 364.165222,58.743317 
M343.235718,60.008415 
	C344.065521,58.563602 345.550751,57.145855 345.611725,55.669289 
	C345.876221,49.264076 345.725128,42.841698 345.725128,36.336700 
	C348.907715,36.149799 351.338562,36.007050 353.859131,35.859024 
	C353.859131,33.663277 353.859131,31.782522 353.859131,29.717949 
	C345.096588,29.717949 336.672791,29.717949 328.035645,29.717949 
	C328.035645,31.895517 328.035645,33.787773 328.035645,36.130859 
	C330.760223,36.130859 333.181183,36.130859 336.237152,36.130859 
	C336.237152,44.280594 336.237152,52.001080 336.237152,60.013561 
	C338.696594,60.013561 340.511505,60.013561 343.235718,60.008415 
M315.070526,39.535816 
	C315.070526,46.270195 315.070526,53.004570 315.070526,59.624619 
	C318.577759,59.624619 321.305878,59.624619 324.077881,59.624619 
	C324.077881,49.529633 324.077881,39.816109 324.077881,29.902309 
	C321.039001,29.902309 318.323547,29.902309 315.070557,29.902309 
	C315.070557,32.994499 315.070557,35.771030 315.070526,39.535816 
z"/>
<path fill="#405E8B" opacity="1.000000" stroke="none" 
	d="
M105.624512,43.191860 
	C106.719704,49.940296 109.726540,53.006447 113.981209,51.616295 
	C115.711273,51.051025 117.081650,49.384884 118.615677,48.219635 
	C118.396400,47.839046 118.177116,47.458458 117.957832,47.077869 
	C116.200928,46.867554 114.444031,46.657234 112.263062,46.396152 
	C112.263062,44.160587 112.263062,41.943680 112.263062,39.150940 
	C117.449814,39.150940 122.735176,39.007034 127.998085,39.286293 
	C128.923187,39.335381 130.466431,41.126816 130.510605,42.165218 
	C130.756592,47.948879 130.628723,53.748444 130.628723,61.272671 
	C127.316902,59.208927 125.199074,57.889214 122.869240,56.437393 
	C114.107773,61.798660 105.703415,61.820343 99.032356,56.200821 
	C92.388687,50.604355 90.167358,39.533398 93.861244,30.428371 
	C97.065582,22.530033 104.651421,17.784904 113.269699,18.287918 
	C121.915916,18.792562 127.838676,23.484667 130.039597,32.078426 
	C126.508362,32.718540 123.015495,33.351700 119.303978,34.024498 
	C118.737289,32.786163 118.541870,31.398134 117.753929,30.825691 
	C115.753571,29.372414 113.329987,27.115429 111.372643,27.379559 
	C109.420174,27.643032 106.918701,30.307211 106.289436,32.407642 
	C105.319008,35.646904 105.739265,39.302792 105.624512,43.191860 
z"/>
<path fill="#3C5B89" opacity="1.000000" stroke="none" 
	d="
M193.966583,50.952667 
	C197.263184,50.952663 200.075546,50.952663 203.285812,50.952663 
	C203.285812,54.003067 203.285812,56.715633 203.285812,59.717300 
	C192.615936,59.717300 182.215988,59.717300 171.437866,59.717300 
	C171.437866,46.224972 171.437866,32.865665 171.437866,19.223938 
	C181.862488,19.223938 192.106140,19.223938 202.693268,19.223938 
	C202.693268,21.997631 202.693268,24.700050 202.693268,27.982885 
	C196.413315,27.982885 190.345703,27.982885 184.058838,27.982885 
	C184.058838,30.483379 184.058838,32.407803 184.058838,34.768406 
	C187.831879,34.768406 191.432770,34.768406 195.471252,34.768406 
	C195.471252,37.876850 195.471252,40.557449 195.471252,43.719406 
	C191.764984,43.719406 188.173904,43.719406 184.202972,43.719406 
	C184.202972,46.232643 184.202972,48.284096 184.202972,50.952675 
	C187.261551,50.952675 190.371948,50.952675 193.966583,50.952667 
z"/>
<path fill="#3C5B89" opacity="1.000000" stroke="none" 
	d="
M58.589149,27.550373 
	C58.798374,27.034286 58.838341,26.872503 58.892632,26.715675 
	C61.443855,19.345789 66.410019,16.731909 73.747108,19.081045 
	C74.668312,19.375986 75.681099,20.432957 76.012268,21.364164 
	C80.397781,33.695717 84.671776,46.066959 88.949181,58.436733 
	C89.042480,58.706551 88.847664,59.075993 88.674271,60.002842 
	C86.030746,60.002842 83.250565,59.799992 80.513657,60.057320 
	C77.504921,60.340206 75.708527,59.314503 75.216637,56.311741 
	C74.675346,53.007389 73.038063,51.725475 69.476357,51.907585 
	C64.539467,52.160007 59.224941,50.920830 58.490623,58.370880 
	C58.424355,59.043198 55.851475,59.731922 54.376534,59.936680 
	C52.436882,60.205948 50.431652,60.002815 47.172955,60.002815 
	C51.074306,48.875977 54.750439,38.391483 58.589149,27.550373 
M70.210930,39.343575 
	C69.387138,36.994465 68.563347,34.645355 67.225067,30.829142 
	C65.669373,35.575089 64.602051,38.831165 63.494228,42.210804 
	C70.056122,43.163536 70.056122,43.163536 70.210930,39.343575 
z"/>
<path fill="#3B5988" opacity="1.000000" stroke="none" 
	d="
M11.929132,22.198288 
	C12.756361,20.797480 13.566354,19.095093 14.409382,19.078575 
	C24.025454,18.890156 33.646561,18.958803 43.586010,18.958803 
	C43.703644,20.827271 43.735294,22.275753 43.897289,23.709511 
	C44.253036,26.858221 43.150200,28.244619 39.739773,28.063589 
	C34.933743,27.808479 30.104055,27.999031 24.841522,27.999031 
	C24.841522,30.277704 24.841522,32.315979 24.841522,34.796173 
	C28.575895,34.796173 32.168716,34.796173 37.448429,34.796173 
	C36.380169,38.353016 36.347015,42.449711 34.526039,43.528442 
	C32.192577,44.910767 28.420265,43.864208 24.833006,43.864208 
	C24.833006,46.209419 24.833006,48.249035 24.833006,50.819565 
	C31.096830,50.819565 37.327694,50.819565 43.894058,50.819565 
	C43.894058,54.041286 43.894058,56.744064 43.894058,59.725212 
	C33.288872,59.725212 22.902050,59.725212 11.927241,59.725212 
	C11.927241,47.213619 11.927241,34.946690 11.929132,22.198288 
z"/>
<path fill="#3C5A89" opacity="1.000000" stroke="none" 
	d="
M247.562393,34.425766 
	C247.562759,43.008587 247.562759,51.131702 247.562759,59.624378 
	C244.380661,59.624378 241.652222,59.624378 238.389709,59.624378 
	C238.389709,53.891739 238.389709,47.992619 238.389709,42.093498 
	C238.037750,42.034328 237.685791,41.975163 237.333847,41.915997 
	C235.748962,46.853733 234.357910,51.867966 232.458282,56.681488 
	C231.905365,58.082497 229.888214,59.774605 228.562973,59.757175 
	C227.240845,59.739788 225.321671,57.995770 224.751190,56.572937 
	C222.855804,51.845638 221.449493,46.922249 219.124496,42.117931 
	C219.124496,47.900848 219.124496,53.683765 219.124496,59.723007 
	C216.556778,59.723007 214.492920,59.723007 212.072403,59.723007 
	C212.072403,49.762318 212.072403,39.904236 212.072403,28.986717 
	C216.650650,29.588072 221.972641,28.804489 224.869217,31.092031 
	C227.665543,33.300411 227.960434,38.676220 229.700409,43.650326 
	C230.996078,39.564236 232.223663,36.484535 232.913773,33.288761 
	C233.572922,30.236300 235.145096,29.122818 238.136917,29.428841 
	C239.782379,29.597147 241.476624,29.614246 243.118103,29.428169 
	C246.645325,29.028332 248.043961,30.530634 247.562393,34.425766 
z"/>
<path fill="#3E5C8A" opacity="1.000000" stroke="none" 
	d="
M156.983231,50.946819 
	C160.277039,50.946812 163.086716,50.946812 166.284653,50.946812 
	C166.284653,54.026176 166.284653,56.740696 166.284653,59.732777 
	C156.050964,59.732777 146.125748,59.732777 135.723328,59.732777 
	C135.723328,46.340595 135.723328,32.982121 135.723328,19.278284 
	C139.658676,19.278284 143.537323,19.278284 147.835602,19.278284 
	C147.835602,29.692553 147.835602,39.954399 147.835602,50.946827 
	C150.985306,50.946827 153.742203,50.946827 156.983231,50.946819 
z"/>
<path fill="#405E8B" opacity="1.000000" stroke="none" 
	d="
M310.939178,34.303978 
	C310.939331,43.035259 310.939331,51.302513 310.939331,59.709846 
	C298.815094,61.907696 299.087219,49.473892 291.836060,45.493305 
	C291.836060,50.105892 291.836060,54.858479 291.836060,59.800594 
	C288.887970,59.800594 286.768860,59.800594 284.285583,59.800594 
	C284.285583,49.908932 284.285583,40.031162 284.285583,29.984827 
	C288.973267,28.728413 292.904205,28.920750 295.641663,33.924236 
	C297.422302,37.178883 299.989349,40.003288 303.149902,44.308929 
	C303.149902,38.581612 303.149902,34.392075 303.149902,30.380354 
	C310.105316,28.530113 310.607605,28.781721 310.939178,34.303978 
z"/>
<path fill="#3C5B89" opacity="1.000000" stroke="none" 
	d="
M389.776123,31.392578 
	C392.928650,30.436506 396.025726,29.703844 399.154358,29.525728 
	C402.125641,29.356571 405.150055,29.602751 408.114716,29.964588 
	C411.964355,30.434439 415.190460,32.036690 416.305359,36.162968 
	C417.394592,40.194252 415.840088,43.299038 412.635590,45.731506 
	C412.138794,46.108620 411.666687,46.518284 411.150391,46.939651 
	C412.945709,51.205399 414.654846,55.266350 416.417358,59.454140 
	C407.054565,60.840378 407.131287,60.810951 404.055298,52.791683 
	C403.316681,50.866081 401.883240,49.207020 400.769318,47.425385 
	C400.173737,47.669006 399.578156,47.912628 398.982574,48.156254 
	C398.982574,50.072044 398.982574,51.987839 398.982574,53.903629 
	C398.982574,55.704418 398.982574,57.505203 398.982574,59.653160 
	C395.860535,59.653160 393.137421,59.653160 389.734497,59.653160 
	C389.734497,50.378262 389.734497,41.118271 389.776123,31.392578 
M398.982666,37.515186 
	C399.083344,38.908504 399.184021,40.301826 399.285553,41.706913 
	C400.621399,41.778843 401.598541,42.132370 402.219147,41.806641 
	C403.870728,40.939758 405.368744,39.780247 406.927856,38.737110 
	C405.348755,37.725712 403.862274,36.477112 402.149445,35.808250 
	C401.355865,35.498363 400.121338,36.317741 398.982666,37.515186 
z"/>
<path fill="#3F5D8A" opacity="1.000000" stroke="none" 
	d="
M280.280334,47.366848 
	C278.251251,57.672703 270.724121,62.429962 261.121490,59.831242 
	C253.246017,57.699940 249.068726,48.645813 251.763260,39.547642 
	C254.260025,31.117235 262.679443,26.972315 271.150269,30.003355 
	C277.609283,32.314522 280.708496,38.036549 280.280334,47.366848 
M264.871429,35.647934 
	C260.692108,36.969498 261.039001,40.555698 260.926239,43.791389 
	C260.668121,51.196781 262.071991,53.981796 265.824554,53.952755 
	C269.590424,53.923615 271.437439,50.158993 270.706635,43.195457 
	C270.360291,39.895134 270.581055,35.881519 264.871429,35.647934 
z"/>
<path fill="#3F5D8B" opacity="1.000000" stroke="none" 
	d="
M363.838806,58.527298 
	C357.520721,53.759312 355.341736,47.197189 357.357666,39.775902 
	C358.987152,33.777084 363.603210,29.824108 369.774231,29.142857 
	C378.679535,28.159746 385.626221,34.154427 386.104889,43.235432 
	C386.667999,53.918053 381.105804,60.466171 371.395905,60.233101 
	C368.975159,60.174995 366.574890,59.262897 363.838806,58.527298 
M367.478516,38.339649 
	C367.310242,42.113708 366.666718,45.955711 367.192078,49.630611 
	C367.423706,51.250637 370.039429,53.660500 371.555115,53.647549 
	C373.063965,53.634651 375.437988,51.246445 375.849792,49.521824 
	C376.557892,46.556023 376.371704,43.251331 375.954315,40.171078 
	C375.298889,35.333912 372.135040,34.425064 367.478516,38.339649 
z"/>
<path fill="#415E8C" opacity="1.000000" stroke="none" 
	d="
M342.781067,60.010986 
	C340.511505,60.013561 338.696594,60.013561 336.237152,60.013561 
	C336.237152,52.001080 336.237152,44.280594 336.237152,36.130859 
	C333.181183,36.130859 330.760223,36.130859 328.035645,36.130859 
	C328.035645,33.787773 328.035645,31.895517 328.035645,29.717949 
	C336.672791,29.717949 345.096588,29.717949 353.859131,29.717949 
	C353.859131,31.782522 353.859131,33.663277 353.859131,35.859024 
	C351.338562,36.007050 348.907715,36.149799 345.725128,36.336700 
	C345.725128,42.841698 345.876221,49.264076 345.611725,55.669289 
	C345.550751,57.145855 344.065521,58.563602 342.781067,60.010986 
z"/>
<path fill="#3C5B89" opacity="1.000000" stroke="none" 
	d="
M315.070557,39.041687 
	C315.070557,35.771030 315.070557,32.994499 315.070557,29.902309 
	C318.323547,29.902309 321.039001,29.902309 324.077881,29.902309 
	C324.077881,39.816109 324.077881,49.529633 324.077881,59.624619 
	C321.305878,59.624619 318.577759,59.624619 315.070526,59.624619 
	C315.070526,53.004570 315.070526,46.270195 315.070557,39.041687 
z"/>
<path fill="#E7EBF0" opacity="1.000000" stroke="none" 
	d="
M70.353828,39.710617 
	C70.056122,43.163536 70.056122,43.163536 63.494228,42.210804 
	C64.602051,38.831165 65.669373,35.575089 67.225067,30.829142 
	C68.563347,34.645355 69.387138,36.994465 70.353828,39.710617 
z"/>
<path fill="#F4F6F9" opacity="1.000000" stroke="none" 
	d="
M399.034668,37.070171 
	C400.121338,36.317741 401.355865,35.498363 402.149445,35.808250 
	C403.862274,36.477112 405.348755,37.725712 406.927856,38.737099 
	C405.368744,39.780247 403.870728,40.939758 402.219147,41.806641 
	C401.598541,42.132370 400.621399,41.778843 399.285553,41.706913 
	C399.184021,40.301826 399.083344,38.908504 399.034668,37.070171 
z"/>
<path fill="#F7F8FA" opacity="1.000000" stroke="none" 
	d="
M265.238525,35.576664 
	C270.581055,35.881519 270.360291,39.895134 270.706635,43.195457 
	C271.437439,50.158993 269.590424,53.923615 265.824554,53.952755 
	C262.071991,53.981796 260.668121,51.196781 260.926239,43.791389 
	C261.039001,40.555698 260.692108,36.969498 265.238525,35.576664 
z"/>
<path fill="#FAFBFC" opacity="1.000000" stroke="none" 
	d="
M367.689209,37.957916 
	C372.135040,34.425064 375.298889,35.333912 375.954315,40.171078 
	C376.371704,43.251331 376.557892,46.556023 375.849792,49.521824 
	C375.437988,51.246445 373.063965,53.634651 371.555115,53.647549 
	C370.039429,53.660500 367.423706,51.250637 367.192078,49.630611 
	C366.666718,45.955711 367.310242,42.113708 367.689209,37.957916 
z"/>
</svg>